#N canvas 76 76 1920 1144 12;
#X obj 115 24 key;
#X floatatom 169 45 5 0 0 0 - - - 0;
#X obj 223 80 sel 97 119 115 101 100 102 116 103 121 104 117 106;
#X msg 110 148 261.63;
#X msg 174 151 227.18;
#X msg 350 150 329.63;
#X msg 231 150 293.66;
#X msg 294 150 311.12;
#X msg 408 153 349.23;
#X msg 477 152 369.99;
#X msg 551 153 392;
#X msg 588 153 415.3;
#X msg 650 152 440;
#X msg 694 153 466.16;
#X msg 750 154 523.25;
#X obj 387 277 outlet;
#X connect 0 0 1 0;
#X connect 1 0 2 0;
#X connect 2 0 3 0;
#X connect 2 1 4 0;
#X connect 2 2 6 0;
#X connect 2 3 7 0;
#X connect 2 4 5 0;
#X connect 2 5 8 0;
#X connect 2 6 9 0;
#X connect 2 7 10 0;
#X connect 2 8 11 0;
#X connect 2 9 12 0;
#X connect 2 10 13 0;
#X connect 2 11 14 0;
#X connect 3 0 15 0;
#X connect 4 0 15 0;
#X connect 5 0 15 0;
#X connect 6 0 15 0;
#X connect 7 0 15 0;
#X connect 8 0 15 0;
#X connect 9 0 15 0;
#X connect 10 0 15 0;
#X connect 11 0 15 0;
#X connect 12 0 15 0;
#X connect 13 0 15 0;
#X connect 14 0 15 0;
