#N canvas 571 0 1336 1131 12;
#X obj 42 163 noise~;
#X msg 50 37 \; pd dsp \$1;
#X obj 50 13 tgl 19 0 empty empty empty 0 -10 0 12 #fcfcfc #000000 #000000 0 1;
#X obj 468 506 output~;
#X obj 254 327 +~;
#X obj 286 169 delread4~ noised;
#X obj 72 206 *~;
#X obj 137 177 line~;
#X obj 201 24 keyboard;
#X obj 391 259 /~ 2;
#X obj 261 244 /~ 2;
#X obj 465 200 lop~ 500;
#X obj 155 112 bng 19 250 50 0 empty empty empty 0 -10 0 12 #fcfcfc #000000 #000000;
#X floatatom 207 74 11 0 0 0 - - - 0;
#X obj 203 48 * 10;
#X msg 137 149 1 \, 0 30;
#X obj 72 375 delwrite~ noised 10;
#X connect 0 0 6 0;
#X connect 2 0 1 0;
#X connect 4 0 3 0;
#X connect 4 0 16 0;
#X connect 5 0 10 0;
#X connect 5 0 11 0;
#X connect 6 0 4 0;
#X connect 7 0 6 1;
#X connect 8 0 14 0;
#X connect 9 0 4 1;
#X connect 10 0 4 0;
#X connect 11 0 9 0;
#X connect 12 0 15 0;
#X connect 13 0 12 0;
#X connect 13 0 11 1;
#X connect 14 0 13 0;
#X connect 15 0 7 0;
